<svg width="363" height="268" viewBox="0 0 363 268" fill="none" xmlns="http://www.w3.org/2000/svg">
<path d="M188.267 146.474V155.424H208.571C219.043 157.46 221.289 160.456 222.721 167.123L226.413 199.757C222.542 203.264 219.921 203.465 214.723 200.989L211.032 168.97C210.457 168.458 209.873 168.188 208.571 167.739H158.12C155.886 167.572 154.844 167.908 153.813 170.202L151.967 200.989C146.753 202.861 144.037 202.927 139.662 200.373L142.123 165.891C144.722 158.667 147.767 156.655 155.043 155.424H175.962L175.347 122.789L155.043 125.029C151.026 124.963 149.091 124.316 145.815 122.789C141.473 120.776 139.607 118.426 137.816 107.732L137.201 96.0326C141.388 92.5403 144.278 92.4361 149.506 96.0326V100.134M188.267 131.081V122.789L211.032 125.029C217.452 124.269 219.727 122.737 222.106 118.479L226.413 104.933V96.0327C221.327 92.3113 218.086 92.3088 214.108 96.0327V104.317C213.579 108.457 212.902 110.601 209.801 113.553L182.115 110.475L155.043 113.553C151.918 113.2 150.815 111.427 150.336 107.067" stroke="#000821" stroke-width="2.5" stroke-linecap="round"/>
<path d="M133.51 92.5209C132.958 92.5209 132.51 92.9686 132.51 93.5209C132.51 94.0732 132.958 94.5209 133.51 94.5209L133.51 93.5209L133.51 92.5209ZM235.642 93.5208V94.5208L236.642 94.5208V93.5208H235.642ZM127.357 108.299L128.073 108.998L128.357 108.706V108.299H127.357ZM113.207 108.299H112.207V108.725L112.513 109.02L113.207 108.299ZM113.207 71.9702L112.499 71.2634L112.207 71.5563V71.9702H113.207ZM127.357 71.9705H128.357V71.5312L128.034 71.234L127.357 71.9705ZM110.13 106.836C110.683 106.836 111.13 106.388 111.13 105.836C111.13 105.284 110.683 104.836 110.13 104.836V105.836V106.836ZM105.824 105.836H104.824C104.824 106.388 105.271 106.836 105.824 106.836V105.836ZM105.824 73.8175V72.8175C105.271 72.8175 104.824 73.2652 104.824 73.8175H105.824ZM110.13 74.8175C110.683 74.8175 111.13 74.3698 111.13 73.8175C111.13 73.2652 110.683 72.8175 110.13 72.8175V73.8175V74.8175ZM97.21 83.6693V82.6693C96.6577 82.6693 96.21 83.117 96.21 83.6693H97.21ZM97.21 99.0627H96.21L97.21 100.063V99.0627ZM100.286 100.063C100.839 100.063 101.286 99.615 101.286 99.0627C101.286 98.5104 100.839 98.0627 100.286 98.0627V99.0627V100.063ZM235.642 71.9702L234.935 71.2636L234.642 71.5564V71.9702H235.642ZM249.793 71.97H250.793V71.5447L250.487 71.2496L249.793 71.97ZM249.793 108.299L250.5 109.006L250.793 108.713V108.299H249.793ZM235.642 108.299H234.642V108.736L234.963 109.033L235.642 108.299ZM236.642 100.91C236.642 100.358 236.194 99.9098 235.642 99.9098C235.09 99.9098 234.642 100.358 234.642 100.91H235.642H236.642ZM252.869 72.8172C252.317 72.8172 251.869 73.2649 251.869 73.8172C251.869 74.3695 252.317 74.8172 252.869 74.8172V73.8172V72.8172ZM257.791 73.8172H258.791V72.8172H257.791V73.8172ZM257.791 105.836V106.836H258.791V105.836H257.791ZM252.869 104.836C252.317 104.836 251.869 105.283 251.869 105.836C251.869 106.388 252.317 106.836 252.869 106.836V105.836V104.836ZM265.174 83.6692H266.174C266.174 83.117 265.727 82.6692 265.174 82.6692V83.6692ZM265.174 99.0624V100.062L266.174 99.0624H265.174ZM262.098 82.6692C261.546 82.6692 261.098 83.117 261.098 83.6692C261.098 84.2215 261.546 84.6692 262.098 84.6692V83.6692V82.6692ZM194.42 92.5209C193.868 92.5209 193.42 92.9686 193.42 93.5209C193.42 94.0732 193.868 94.5209 194.42 94.5209V93.5209V92.5209ZM193.19 86.3634C192.637 86.3634 192.19 86.8111 192.19 87.3634C192.19 87.9157 192.637 88.3634 193.19 88.3634V87.3634V86.3634ZM167.349 94.5208C167.901 94.5208 168.349 94.0731 168.349 93.5208C168.349 92.9685 167.901 92.5208 167.349 92.5208L167.349 93.5208V94.5208ZM168.579 88.3634C169.132 88.3634 169.579 87.9157 169.579 87.3634C169.579 86.8111 169.132 86.3634 168.579 86.3634V87.3634V88.3634ZM235.642 93.5208H236.642V87.3634H235.642H234.642V93.5208H235.642ZM127.357 87.3635H126.357V108.299H127.357H128.357V87.3635H127.357ZM127.357 108.299L126.642 107.6C124.787 109.499 123.469 110.813 122.409 111.647C121.344 112.485 120.711 112.696 120.215 112.668C119.692 112.639 119.05 112.335 117.995 111.45C116.949 110.572 115.692 109.301 113.9 107.578L113.207 108.299L112.513 109.02C114.242 110.682 115.594 112.047 116.71 112.982C117.816 113.911 118.89 114.598 120.104 114.665C121.343 114.734 122.467 114.146 123.646 113.219C124.829 112.288 126.243 110.87 128.073 108.998L127.357 108.299ZM113.207 108.299H114.207V71.9702H113.207H112.207V108.299H113.207ZM113.207 71.9702L113.914 72.677C115.618 70.9715 116.808 69.7369 117.8 68.9026C118.794 68.0662 119.405 67.7978 119.919 67.7826C120.437 67.7673 121.104 68.0024 122.226 68.8278C123.338 69.6463 124.727 70.9121 126.681 72.707L127.357 71.9705L128.034 71.234C126.111 69.4682 124.631 68.1148 123.411 67.2169C122.2 66.3259 121.072 65.7476 119.86 65.7835C118.643 65.8194 117.589 66.4666 116.512 67.3721C115.434 68.2796 114.148 69.6131 112.499 71.2634L113.207 71.9702ZM127.357 71.9705H126.357V87.3635H127.357H128.357V71.9705H127.357ZM110.13 105.836V104.836H105.824V105.836V106.836H110.13V105.836ZM105.824 73.8175V74.8175H110.13V73.8175V72.8175H105.824V73.8175ZM105.824 105.836H106.824V83.6693H105.824H104.824V105.836H105.824ZM105.824 83.6693H106.824V73.8175H105.824H104.824V83.6693H105.824ZM105.824 83.6693V82.6693H97.21V83.6693V84.6693H105.824V83.6693ZM97.21 83.6693H96.21V99.0627H97.21H98.21V83.6693H97.21ZM97.21 99.0627V100.063H100.286V99.0627V98.0627H97.21V99.0627ZM235.642 87.3634H236.642V71.9702H235.642H234.642V87.3634H235.642ZM235.642 71.9702L236.35 72.6767C237.236 71.7895 237.989 70.9958 238.64 70.3083C239.296 69.6155 239.836 69.0441 240.314 68.578C241.314 67.6036 241.842 67.3097 242.254 67.2727C242.639 67.2381 243.215 67.4096 244.369 68.3226C245.497 69.2154 246.96 70.6302 249.099 72.6904L249.793 71.97L250.487 71.2496C248.386 69.2269 246.835 67.7232 245.61 66.7541C244.41 65.8053 243.291 65.1716 242.075 65.2807C240.886 65.3874 239.903 66.1861 238.918 67.1454C238.404 67.6462 237.833 68.252 237.188 68.9331C236.538 69.6196 235.8 70.3967 234.935 71.2636L235.642 71.9702ZM249.793 71.97H248.793V108.299H249.793H250.793V71.97H249.793ZM249.793 108.299L249.086 107.591C247.177 109.498 245.896 110.843 244.871 111.737C243.828 112.645 243.286 112.86 242.884 112.855C242.462 112.849 241.886 112.599 240.779 111.673C239.692 110.765 238.338 109.429 236.321 107.564L235.642 108.299L234.963 109.033C236.905 110.828 238.36 112.258 239.496 113.208C240.611 114.14 241.669 114.838 242.857 114.855C244.064 114.871 245.106 114.184 246.184 113.245C247.278 112.292 248.655 110.848 250.5 109.006L249.793 108.299ZM235.642 108.299H236.642V100.91H235.642H234.642V108.299H235.642ZM252.869 73.8172V74.8172H257.791V73.8172V72.8172H252.869V73.8172ZM257.791 105.836V104.836H252.869V105.836V106.836H257.791V105.836ZM257.791 73.8172H256.791V83.6692H257.791H258.791V73.8172H257.791ZM265.174 83.6692H264.174V99.0624H265.174H266.174V83.6692H265.174ZM257.791 83.6692H256.791V99.0624H257.791H258.791V83.6692H257.791ZM257.791 99.0624H256.791V105.836H257.791H258.791V99.0624H257.791ZM265.174 99.0624V98.0624H257.791V99.0624V100.062H265.174V99.0624ZM265.174 83.6692V82.6692H262.098V83.6692V84.6692H265.174V83.6692ZM194.42 93.5209V94.5209L235.642 94.5208V93.5208V92.5208L194.42 92.5209V93.5209ZM235.642 87.3634V86.3634H193.19V87.3634V88.3634H235.642V87.3634ZM133.51 93.5209L133.51 94.5209L167.349 94.5208V93.5208L167.349 92.5208L133.51 92.5209L133.51 93.5209ZM168.579 87.3634V86.3634L127.357 86.3635L127.357 87.3635L127.357 88.3635L168.579 88.3634V87.3634Z" fill="#000821"/>
<path d="M180.885 78.7617C188.688 78.762 195.016 85.0933 195.016 92.9053C195.016 100.717 188.688 107.049 180.885 107.049C173.081 107.049 166.753 100.717 166.753 92.9053C166.753 85.0931 173.081 78.7617 180.885 78.7617Z" stroke="#000821" stroke-width="2.5"/>
<path d="M181.599 11.8521C239.837 11.8521 285.538 43.1311 317.523 76.2983V76.2993C333.311 92.6775 345.353 109.258 353.448 121.696L353.453 121.704L353.459 121.712C357.032 126.978 359.889 131.707 361.859 135.047C360.105 138.505 357.641 142.87 354.616 148.163C347.318 160.391 336.071 176.767 321.077 193.142C290.696 225.691 244.998 257.379 181.599 257.379C118.203 257.379 72.5061 225.694 42.125 193.147C27.1291 176.771 15.8809 160.392 8.58203 148.163C5.36555 142.676 2.88015 138.102 1.12109 134.616C2.88018 131.13 5.36556 126.556 8.58203 121.069C15.8812 108.839 27.13 92.4596 42.127 76.0825L42.126 76.0815C72.5071 43.5351 118.204 11.8522 181.599 11.8521ZM181.599 28.3247C124.296 28.3248 82.67 56.7989 54.207 87.27L54.2002 87.2778C40.1438 102.639 29.5738 118.024 22.7471 129.455L22.7432 129.462C21.7733 131.118 20.8799 132.674 20.0625 134.125L19.7861 134.616L20.0625 135.107C20.8799 136.559 21.7732 138.115 22.7432 139.77L22.7471 139.777C29.5738 151.207 40.1437 166.594 54.2002 181.955L54.207 181.961C82.67 212.433 124.296 240.908 181.599 240.908C238.901 240.908 280.528 212.433 308.991 181.961L308.998 181.954C323.019 166.631 333.571 151.284 340.399 139.863L340.404 139.854L340.409 139.846C341.178 138.5 341.895 137.242 342.561 136.066L342.858 135.541L342.531 135.032C341.691 133.727 340.794 132.367 339.845 130.967L339.745 130.82L339.658 130.687C332.201 119.23 321.262 104.142 307.064 89.1831L305.68 87.7358C275.286 56.2194 233.583 28.3247 181.599 28.3247Z" stroke="#000821" stroke-width="2"/>
<path d="M37.3106 249.143H68.9088V267H37.3106C25.4304 265.27 21.1024 261.867 19.6885 249.143V217.741H37.3106V249.143Z" stroke="#000821" stroke-width="2"/>
<path d="M37.3106 18.8565H68.9088V1.00002H37.3106C25.4304 2.72966 21.1024 6.13333 19.6885 18.8565V50.2593H37.3106V18.8565Z" stroke="#000821" stroke-width="2"/>
<path d="M325.69 18.8565H294.092V1.00002H325.69C337.571 2.72966 341.899 6.13333 343.312 18.8565V50.2593H325.69V18.8565Z" stroke="#000821" stroke-width="2"/>
<path d="M325.69 249.143H294.092V267H325.69C337.571 265.27 341.899 261.867 343.312 249.143V217.741H325.69V249.143Z" stroke="#000821" stroke-width="2"/>
</svg>
