<svg width="467" height="292" viewBox="0 0 467 292" fill="none" xmlns="http://www.w3.org/2000/svg">
<path d="M0 145.939H72.9689V72.9697H0V145.939Z" fill="#EFEFEF"/>
<path d="M0 72.9689H72.9689V0H0V72.9689Z" fill="#8291BF"/>
<path d="M72.9668 145.939H145.936V72.9697H72.9668V145.939Z" fill="#8291BF"/>
<path d="M0 218.906H72.9689V145.937H0V218.906Z" fill="#EFEFEF"/>
<path d="M0 291.876H72.9689V218.907H0V291.876Z" fill="#D5DCF2"/>
<path d="M72.9668 291.876H145.936V218.907H72.9668V291.876Z" fill="#EFEFEF"/>
<path d="M145.935 291.876H218.903V218.907H145.935V291.876Z" fill="#EFEFEF"/>
<path d="M145.935 218.909H218.903V145.94H145.935V218.909Z" fill="#33457B"/>
<path d="M145.935 145.936H218.903V72.967H145.935V145.936Z" fill="#EFEFEF"/>
<path d="M248.097 145.936H321.066V72.967H248.097V145.936Z" fill="#EFEFEF"/>
<path d="M248.097 218.909H321.066V145.94H248.097V218.909Z" fill="#EFEFEF"/>
<path d="M321.064 218.906H394.033V145.937H321.064V218.906Z" fill="#EFEFEF"/>
<path d="M394.031 218.906H467V145.937H394.031V218.906Z" fill="#D5DCF2"/>
<path d="M394.031 291.876H467V218.907H394.031V291.876Z" fill="#EFEFEF"/>
<path d="M394.031 145.939H467V72.9697H394.031V145.939Z" fill="#8291BF"/>
<path d="M248.097 291.876H321.066V218.907H248.097V291.876Z" fill="#33457B"/>
</svg>
